<mxfile host="65bd71144e">
    <diagram id="SoWHYhd7k-znwIA7Z0QC" name="PÃ¡gina-1">
        <mxGraphModel dx="1113" dy="786" grid="0" gridSize="10" guides="1" tooltips="1" connect="1" arrows="1" fold="1" page="1" pageScale="1" pageWidth="827" pageHeight="1169" background="#7A7A7A" math="0" shadow="0">
            <root>
                <mxCell id="0"/>
                <mxCell id="1" parent="0"/>
                <mxCell id="2" value="App Layers" style="text;html=1;align=center;verticalAlign=middle;resizable=0;points=[];autosize=1;strokeColor=none;fillColor=none;strokeWidth=9;fontSize=32;" vertex="1" parent="1">
                    <mxGeometry x="328" y="44" width="172" height="42" as="geometry"/>
                </mxCell>
                <mxCell id="43" value="" style="group" vertex="1" connectable="0" parent="1">
                    <mxGeometry x="20" y="162" width="788" height="638" as="geometry"/>
                </mxCell>
                <mxCell id="39" value="" style="group;aspect=fixed;strokeColor=none;strokeWidth=3;" vertex="1" connectable="0" parent="43">
                    <mxGeometry y="114" width="788" height="495" as="geometry"/>
                </mxCell>
                <mxCell id="3" value="&lt;font style=&quot;font-size: 14px&quot;&gt;Domain&lt;/font&gt;" style="whiteSpace=wrap;html=1;fontSize=12;strokeWidth=3;fillColor=#e3c800;fontColor=#000000;strokeColor=#B09500;horizontal=1;verticalAlign=top;" vertex="1" parent="39">
                    <mxGeometry x="3" y="380" width="328" height="115" as="geometry"/>
                </mxCell>
                <mxCell id="5" value="Auth" style="whiteSpace=wrap;html=1;fontSize=14;strokeWidth=3;dashed=1;fillColor=#f5f5f5;fontColor=#333333;strokeColor=#666666;" vertex="1" parent="39">
                    <mxGeometry x="13" y="405" width="110" height="38" as="geometry"/>
                </mxCell>
                <mxCell id="15" style="edgeStyle=none;html=1;fontSize=14;strokeWidth=3;" edge="1" parent="39" source="6">
                    <mxGeometry relative="1" as="geometry">
                        <mxPoint x="250.85716029575906" y="427.42860630580367" as="targetPoint"/>
                    </mxGeometry>
                </mxCell>
                <mxCell id="6" value="ManagePosts" style="whiteSpace=wrap;html=1;fontSize=14;strokeWidth=3;dashed=1;fillColor=#f5f5f5;fontColor=#333333;strokeColor=#666666;" vertex="1" parent="39">
                    <mxGeometry x="210" y="405" width="110" height="38" as="geometry"/>
                </mxCell>
                <mxCell id="10" style="edgeStyle=none;html=1;entryX=0.5;entryY=0;entryDx=0;entryDy=0;fontSize=14;strokeWidth=3;" edge="1" parent="39" source="8" target="3">
                    <mxGeometry relative="1" as="geometry"/>
                </mxCell>
                <mxCell id="8" value="&lt;span style=&quot;font-size: 14px&quot;&gt;Data Layer&lt;/span&gt;" style="whiteSpace=wrap;html=1;fontSize=12;strokeWidth=3;fillColor=#008a00;fontColor=#ffffff;strokeColor=#005700;horizontal=1;verticalAlign=top;" vertex="1" parent="39">
                    <mxGeometry x="1.5" y="161" width="331" height="158" as="geometry"/>
                </mxCell>
                <mxCell id="13" style="edgeStyle=none;html=1;entryX=0.408;entryY=-0.15;entryDx=0;entryDy=0;entryPerimeter=0;fontSize=14;strokeWidth=3;" edge="1" parent="39" source="11" target="5">
                    <mxGeometry relative="1" as="geometry"/>
                </mxCell>
                <mxCell id="11" value="LocalAuthentication" style="whiteSpace=wrap;html=1;fontSize=14;strokeWidth=3;fillColor=#f5f5f5;fontColor=#333333;strokeColor=#666666;" vertex="1" parent="39">
                    <mxGeometry x="13" y="257" width="135" height="38" as="geometry"/>
                </mxCell>
                <mxCell id="14" style="edgeStyle=none;html=1;fontSize=14;entryX=0.5;entryY=0;entryDx=0;entryDy=0;strokeWidth=3;" edge="1" parent="39" source="12" target="6">
                    <mxGeometry relative="1" as="geometry">
                        <mxPoint x="246" y="423" as="targetPoint"/>
                    </mxGeometry>
                </mxCell>
                <mxCell id="19" style="edgeStyle=none;html=1;fontSize=14;strokeWidth=3;" edge="1" parent="39">
                    <mxGeometry relative="1" as="geometry">
                        <mxPoint x="246" y="262" as="sourcePoint"/>
                        <mxPoint x="246" y="233" as="targetPoint"/>
                    </mxGeometry>
                </mxCell>
                <mxCell id="12" value="RemoteManagePosts" style="whiteSpace=wrap;html=1;fontSize=14;strokeWidth=3;fillColor=#f5f5f5;fontColor=#333333;strokeColor=#666666;" vertex="1" parent="39">
                    <mxGeometry x="168" y="257" width="156" height="38" as="geometry"/>
                </mxCell>
                <mxCell id="16" value="&lt;span style=&quot;font-size: 14px&quot;&gt;Infra Layer&lt;/span&gt;" style="whiteSpace=wrap;html=1;fontSize=12;strokeWidth=3;fillColor=#0050ef;fontColor=#ffffff;strokeColor=#001DBC;horizontal=1;verticalAlign=top;" vertex="1" parent="39">
                    <mxGeometry width="331" height="115" as="geometry"/>
                </mxCell>
                <mxCell id="18" value="HttClient" style="whiteSpace=wrap;html=1;fontSize=14;strokeWidth=3;dashed=1;fillColor=#f5f5f5;fontColor=#333333;strokeColor=#666666;" vertex="1" parent="39">
                    <mxGeometry x="193" y="194" width="110" height="38" as="geometry"/>
                </mxCell>
                <mxCell id="21" style="edgeStyle=none;html=1;entryX=0.5;entryY=0;entryDx=0;entryDy=0;fontSize=14;strokeWidth=3;" edge="1" parent="39">
                    <mxGeometry relative="1" as="geometry">
                        <mxPoint x="243.31404958677695" y="91" as="sourcePoint"/>
                        <mxPoint x="245" y="193" as="targetPoint"/>
                    </mxGeometry>
                </mxCell>
                <mxCell id="20" value="HttpClient (instance)" style="whiteSpace=wrap;html=1;fontSize=14;strokeWidth=3;fillColor=#f5f5f5;fontColor=#333333;strokeColor=#666666;" vertex="1" parent="39">
                    <mxGeometry x="168" y="54" width="156" height="38" as="geometry"/>
                </mxCell>
                <mxCell id="22" value="translator" style="whiteSpace=wrap;html=1;fontSize=14;strokeWidth=3;dashed=1;fillColor=#f5f5f5;fontColor=#333333;strokeColor=#666666;" vertex="1" parent="39">
                    <mxGeometry x="110.5" y="452" width="110" height="38" as="geometry"/>
                </mxCell>
                <mxCell id="25" style="edgeStyle=none;html=1;entryX=1;entryY=0.5;entryDx=0;entryDy=0;fontSize=14;strokeWidth=3;" edge="1" parent="39" source="24" target="8">
                    <mxGeometry relative="1" as="geometry">
                        <Array as="points">
                            <mxPoint x="387" y="48"/>
                            <mxPoint x="387" y="240"/>
                        </Array>
                    </mxGeometry>
                </mxCell>
                <mxCell id="24" value="&lt;span style=&quot;font-size: 14px&quot;&gt;Main Layer&lt;/span&gt;" style="whiteSpace=wrap;html=1;fontSize=12;strokeWidth=3;fillColor=#6a00ff;fontColor=#ffffff;strokeColor=#3700CC;horizontal=1;verticalAlign=top;" vertex="1" parent="39">
                    <mxGeometry x="454" y="6" width="331" height="77" as="geometry"/>
                </mxCell>
                <mxCell id="28" style="edgeStyle=none;html=1;entryX=0.5;entryY=1;entryDx=0;entryDy=0;fontSize=14;strokeWidth=3;" edge="1" parent="39" source="27" target="24">
                    <mxGeometry relative="1" as="geometry"/>
                </mxCell>
                <mxCell id="27" value="&lt;span style=&quot;font-size: 14px&quot;&gt;Presentation Layer&lt;/span&gt;" style="whiteSpace=wrap;html=1;fontSize=12;strokeWidth=3;fillColor=#a0522d;fontColor=#ffffff;strokeColor=#6D1F00;horizontal=1;verticalAlign=top;" vertex="1" parent="39">
                    <mxGeometry x="454" y="125" width="331" height="107" as="geometry"/>
                </mxCell>
                <mxCell id="30" value="Custom React Hooks&amp;nbsp;" style="whiteSpace=wrap;html=1;fontSize=14;strokeWidth=3;fillColor=#f5f5f5;fontColor=#333333;strokeColor=#666666;" vertex="1" parent="39">
                    <mxGeometry x="541.5" y="166" width="156" height="38" as="geometry"/>
                </mxCell>
                <mxCell id="32" style="edgeStyle=none;html=1;entryX=0.5;entryY=1;entryDx=0;entryDy=0;fontSize=14;strokeWidth=3;" edge="1" parent="39" source="31" target="27">
                    <mxGeometry relative="1" as="geometry"/>
                </mxCell>
                <mxCell id="31" value="&lt;span style=&quot;font-size: 14px&quot;&gt;Presentation Layer&lt;/span&gt;" style="whiteSpace=wrap;html=1;fontSize=12;strokeWidth=3;fillColor=#a0522d;fontColor=#ffffff;strokeColor=#6D1F00;horizontal=1;verticalAlign=top;" vertex="1" parent="39">
                    <mxGeometry x="457" y="260" width="331" height="107" as="geometry"/>
                </mxCell>
                <mxCell id="33" value="React Components" style="whiteSpace=wrap;html=1;fontSize=14;strokeWidth=3;fillColor=#f5f5f5;fontColor=#333333;strokeColor=#666666;" vertex="1" parent="39">
                    <mxGeometry x="522" y="306" width="226" height="38" as="geometry"/>
                </mxCell>
                <mxCell id="34" value="Entry point" style="whiteSpace=wrap;html=1;fontSize=14;strokeWidth=3;fillColor=#f5f5f5;fontColor=#333333;strokeColor=#666666;" vertex="1" parent="39">
                    <mxGeometry x="618" y="36" width="156" height="38" as="geometry"/>
                </mxCell>
                <mxCell id="35" value="Data Instances" style="whiteSpace=wrap;html=1;fontSize=14;strokeWidth=3;fillColor=#f5f5f5;fontColor=#333333;strokeColor=#666666;" vertex="1" parent="39">
                    <mxGeometry x="485" y="36.5" width="118" height="38" as="geometry"/>
                </mxCell>
                <mxCell id="37" style="edgeStyle=none;html=1;entryX=0.5;entryY=1;entryDx=0;entryDy=0;fontSize=14;strokeWidth=3;" edge="1" parent="39" source="36" target="31">
                    <mxGeometry relative="1" as="geometry"/>
                </mxCell>
                <mxCell id="36" value="&lt;span style=&quot;font-size: 14px&quot;&gt;Presentation Layer&lt;/span&gt;" style="whiteSpace=wrap;html=1;fontSize=12;strokeWidth=3;fillColor=#a0522d;fontColor=#ffffff;strokeColor=#6D1F00;horizontal=1;verticalAlign=top;" vertex="1" parent="39">
                    <mxGeometry x="454" y="392" width="331" height="98" as="geometry"/>
                </mxCell>
                <mxCell id="38" value="User Interface" style="whiteSpace=wrap;html=1;fontSize=14;strokeWidth=3;fillColor=#f5f5f5;fontColor=#333333;strokeColor=#666666;" vertex="1" parent="39">
                    <mxGeometry x="509.5" y="431" width="226" height="38" as="geometry"/>
                </mxCell>
                <mxCell id="40" value="*** The arrows indicates dependency direction" style="text;html=1;align=center;verticalAlign=middle;resizable=0;points=[];autosize=1;strokeColor=none;fillColor=none;fontSize=14;strokeWidth=2;" vertex="1" parent="43">
                    <mxGeometry x="8" y="617" width="296" height="21" as="geometry"/>
                </mxCell>
                <mxCell id="41" value="Instances" style="whiteSpace=wrap;html=1;fontSize=14;strokeWidth=2;" vertex="1" parent="43">
                    <mxGeometry x="6" width="94" height="41" as="geometry"/>
                </mxCell>
                <mxCell id="42" value="Interfaces" style="whiteSpace=wrap;html=1;fontSize=14;strokeWidth=2;dashed=1;" vertex="1" parent="43">
                    <mxGeometry x="6" y="55" width="94" height="41" as="geometry"/>
                </mxCell>
            </root>
        </mxGraphModel>
    </diagram>
</mxfile>